<mxfile host="app.diagrams.net" modified="2023-04-20T13:48:06.237Z" agent="Mozilla/5.0 (Windows NT 10.0; Win64; x64) AppleWebKit/537.36 (KHTML, like Gecko) Chrome/112.0.0.0 Safari/537.36" etag="YawG829w4UusqzslObXt" version="21.2.1" type="device">
  <diagram name="Page-1" id="30XgZ1fVRm_6_qRNeM8P">
    <mxGraphModel dx="2049" dy="1056" grid="1" gridSize="10" guides="1" tooltips="1" connect="1" arrows="1" fold="1" page="1" pageScale="1" pageWidth="850" pageHeight="1100" math="0" shadow="0">
      <root>
        <mxCell id="0" />
        <mxCell id="1" parent="0" />
        <mxCell id="OdXs5k8Kck4mFlZXdsgp-2" value="" style="edgeStyle=orthogonalEdgeStyle;rounded=0;orthogonalLoop=1;jettySize=auto;html=1;strokeWidth=1;" edge="1" parent="1" source="OdXs5k8Kck4mFlZXdsgp-3" target="OdXs5k8Kck4mFlZXdsgp-11">
          <mxGeometry relative="1" as="geometry" />
        </mxCell>
        <mxCell id="OdXs5k8Kck4mFlZXdsgp-3" value="Spuštění serveru" style="rounded=1;whiteSpace=wrap;html=1;strokeWidth=1;" vertex="1" parent="1">
          <mxGeometry x="744" y="350" width="120" height="60" as="geometry" />
        </mxCell>
        <mxCell id="OdXs5k8Kck4mFlZXdsgp-5" value="" style="edgeStyle=orthogonalEdgeStyle;rounded=0;orthogonalLoop=1;jettySize=auto;html=1;strokeWidth=1;" edge="1" parent="1" source="OdXs5k8Kck4mFlZXdsgp-9" target="OdXs5k8Kck4mFlZXdsgp-33">
          <mxGeometry relative="1" as="geometry">
            <Array as="points">
              <mxPoint x="540" y="1075" />
            </Array>
          </mxGeometry>
        </mxCell>
        <mxCell id="OdXs5k8Kck4mFlZXdsgp-93" style="edgeStyle=orthogonalEdgeStyle;rounded=0;orthogonalLoop=1;jettySize=auto;html=1;exitX=0.5;exitY=1;exitDx=0;exitDy=0;exitPerimeter=0;entryX=0.5;entryY=0;entryDx=0;entryDy=0;" edge="1" parent="1" source="OdXs5k8Kck4mFlZXdsgp-9" target="OdXs5k8Kck4mFlZXdsgp-30">
          <mxGeometry relative="1" as="geometry" />
        </mxCell>
        <mxCell id="OdXs5k8Kck4mFlZXdsgp-96" style="edgeStyle=orthogonalEdgeStyle;rounded=0;orthogonalLoop=1;jettySize=auto;html=1;exitX=0.5;exitY=1;exitDx=0;exitDy=0;exitPerimeter=0;entryX=0.5;entryY=0;entryDx=0;entryDy=0;" edge="1" parent="1" source="OdXs5k8Kck4mFlZXdsgp-9" target="OdXs5k8Kck4mFlZXdsgp-34">
          <mxGeometry relative="1" as="geometry">
            <Array as="points">
              <mxPoint x="802" y="1190" />
              <mxPoint x="966" y="1190" />
            </Array>
          </mxGeometry>
        </mxCell>
        <mxCell id="OdXs5k8Kck4mFlZXdsgp-98" style="edgeStyle=orthogonalEdgeStyle;rounded=0;orthogonalLoop=1;jettySize=auto;html=1;exitX=0.5;exitY=1;exitDx=0;exitDy=0;exitPerimeter=0;entryX=0.5;entryY=0;entryDx=0;entryDy=0;" edge="1" parent="1" source="OdXs5k8Kck4mFlZXdsgp-9" target="OdXs5k8Kck4mFlZXdsgp-97">
          <mxGeometry relative="1" as="geometry" />
        </mxCell>
        <mxCell id="OdXs5k8Kck4mFlZXdsgp-99" style="edgeStyle=orthogonalEdgeStyle;rounded=0;orthogonalLoop=1;jettySize=auto;html=1;exitX=0.5;exitY=1;exitDx=0;exitDy=0;exitPerimeter=0;entryX=0.5;entryY=0;entryDx=0;entryDy=0;" edge="1" parent="1" source="OdXs5k8Kck4mFlZXdsgp-9" target="OdXs5k8Kck4mFlZXdsgp-36">
          <mxGeometry relative="1" as="geometry" />
        </mxCell>
        <mxCell id="OdXs5k8Kck4mFlZXdsgp-9" value="Uživatel vybere v UI, co má úložiště udělat" style="strokeWidth=1;html=1;shape=mxgraph.flowchart.decision;whiteSpace=wrap;" vertex="1" parent="1">
          <mxGeometry x="708.5" y="990" width="186" height="170" as="geometry" />
        </mxCell>
        <mxCell id="OdXs5k8Kck4mFlZXdsgp-44" style="edgeStyle=orthogonalEdgeStyle;rounded=0;orthogonalLoop=1;jettySize=auto;html=1;" edge="1" parent="1" source="OdXs5k8Kck4mFlZXdsgp-11" target="OdXs5k8Kck4mFlZXdsgp-26">
          <mxGeometry relative="1" as="geometry" />
        </mxCell>
        <mxCell id="OdXs5k8Kck4mFlZXdsgp-11" value="Spuštění klientů" style="rounded=1;whiteSpace=wrap;html=1;strokeWidth=1;" vertex="1" parent="1">
          <mxGeometry x="744.5" y="445" width="120" height="60" as="geometry" />
        </mxCell>
        <mxCell id="OdXs5k8Kck4mFlZXdsgp-74" style="edgeStyle=orthogonalEdgeStyle;rounded=0;orthogonalLoop=1;jettySize=auto;html=1;exitX=0.5;exitY=1;exitDx=0;exitDy=0;" edge="1" parent="1" source="OdXs5k8Kck4mFlZXdsgp-13">
          <mxGeometry relative="1" as="geometry">
            <mxPoint x="802" y="990" as="targetPoint" />
          </mxGeometry>
        </mxCell>
        <mxCell id="OdXs5k8Kck4mFlZXdsgp-13" value="Šifrování spojení pomocí symetrické kryptografie" style="whiteSpace=wrap;html=1;rounded=1;strokeWidth=1;" vertex="1" parent="1">
          <mxGeometry x="741.5" y="850" width="120" height="60" as="geometry" />
        </mxCell>
        <mxCell id="OdXs5k8Kck4mFlZXdsgp-69" style="edgeStyle=orthogonalEdgeStyle;rounded=0;orthogonalLoop=1;jettySize=auto;html=1;exitX=0.5;exitY=1;exitDx=0;exitDy=0;entryX=0.5;entryY=0;entryDx=0;entryDy=0;" edge="1" parent="1" source="OdXs5k8Kck4mFlZXdsgp-26" target="OdXs5k8Kck4mFlZXdsgp-42">
          <mxGeometry relative="1" as="geometry" />
        </mxCell>
        <mxCell id="OdXs5k8Kck4mFlZXdsgp-26" value="Propojení klientů" style="whiteSpace=wrap;html=1;rounded=1;strokeWidth=1;" vertex="1" parent="1">
          <mxGeometry x="744.5" y="540" width="120" height="60" as="geometry" />
        </mxCell>
        <mxCell id="OdXs5k8Kck4mFlZXdsgp-88" value="" style="edgeStyle=orthogonalEdgeStyle;rounded=0;orthogonalLoop=1;jettySize=auto;html=1;" edge="1" parent="1" source="OdXs5k8Kck4mFlZXdsgp-30" target="OdXs5k8Kck4mFlZXdsgp-87">
          <mxGeometry relative="1" as="geometry" />
        </mxCell>
        <mxCell id="OdXs5k8Kck4mFlZXdsgp-30" value="Stáhnutí souboru" style="whiteSpace=wrap;html=1;strokeWidth=1;" vertex="1" parent="1">
          <mxGeometry x="740" y="1220" width="123" height="60" as="geometry" />
        </mxCell>
        <mxCell id="OdXs5k8Kck4mFlZXdsgp-31" value="" style="edgeStyle=orthogonalEdgeStyle;rounded=0;orthogonalLoop=1;jettySize=auto;html=1;strokeWidth=1;" edge="1" parent="1" source="OdXs5k8Kck4mFlZXdsgp-29">
          <mxGeometry relative="1" as="geometry">
            <mxPoint x="540" y="1330" as="targetPoint" />
          </mxGeometry>
        </mxCell>
        <mxCell id="OdXs5k8Kck4mFlZXdsgp-32" style="edgeStyle=orthogonalEdgeStyle;rounded=0;orthogonalLoop=1;jettySize=auto;html=1;entryX=0.5;entryY=0;entryDx=0;entryDy=0;entryPerimeter=0;strokeWidth=1;" edge="1" parent="1" source="OdXs5k8Kck4mFlZXdsgp-33" target="OdXs5k8Kck4mFlZXdsgp-9">
          <mxGeometry relative="1" as="geometry">
            <Array as="points">
              <mxPoint x="430" y="1200" />
              <mxPoint x="430" y="970" />
              <mxPoint x="802" y="970" />
            </Array>
          </mxGeometry>
        </mxCell>
        <mxCell id="OdXs5k8Kck4mFlZXdsgp-33" value="Je uživatel oprávněn &lt;br&gt;pro přístup k logům?" style="strokeWidth=1;html=1;shape=mxgraph.flowchart.decision;whiteSpace=wrap;" vertex="1" parent="1">
          <mxGeometry x="447" y="1115" width="186" height="170" as="geometry" />
        </mxCell>
        <mxCell id="OdXs5k8Kck4mFlZXdsgp-90" style="edgeStyle=orthogonalEdgeStyle;rounded=0;orthogonalLoop=1;jettySize=auto;html=1;exitX=0.5;exitY=1;exitDx=0;exitDy=0;entryX=0.5;entryY=0;entryDx=0;entryDy=0;" edge="1" parent="1" source="OdXs5k8Kck4mFlZXdsgp-34" target="OdXs5k8Kck4mFlZXdsgp-87">
          <mxGeometry relative="1" as="geometry" />
        </mxCell>
        <mxCell id="OdXs5k8Kck4mFlZXdsgp-34" value="Nahrání souboru" style="whiteSpace=wrap;html=1;strokeWidth=1;" vertex="1" parent="1">
          <mxGeometry x="900.75" y="1220" width="130" height="60" as="geometry" />
        </mxCell>
        <mxCell id="OdXs5k8Kck4mFlZXdsgp-89" style="edgeStyle=orthogonalEdgeStyle;rounded=0;orthogonalLoop=1;jettySize=auto;html=1;exitX=0.5;exitY=1;exitDx=0;exitDy=0;entryX=0.5;entryY=0;entryDx=0;entryDy=0;" edge="1" parent="1" source="OdXs5k8Kck4mFlZXdsgp-36" target="OdXs5k8Kck4mFlZXdsgp-87">
          <mxGeometry relative="1" as="geometry" />
        </mxCell>
        <mxCell id="OdXs5k8Kck4mFlZXdsgp-36" value="Smazání souboru" style="whiteSpace=wrap;html=1;strokeWidth=1;" vertex="1" parent="1">
          <mxGeometry x="1053" y="1220" width="123" height="60" as="geometry" />
        </mxCell>
        <mxCell id="OdXs5k8Kck4mFlZXdsgp-40" value="Ano" style="text;html=1;align=center;verticalAlign=middle;resizable=0;points=[];autosize=1;strokeColor=none;fillColor=none;strokeWidth=1;" vertex="1" parent="1">
          <mxGeometry x="550" y="1285" width="40" height="30" as="geometry" />
        </mxCell>
        <mxCell id="OdXs5k8Kck4mFlZXdsgp-41" value="Ne" style="text;html=1;align=center;verticalAlign=middle;resizable=0;points=[];autosize=1;strokeColor=none;fillColor=none;strokeWidth=1;" vertex="1" parent="1">
          <mxGeometry x="430" y="1160" width="40" height="30" as="geometry" />
        </mxCell>
        <mxCell id="OdXs5k8Kck4mFlZXdsgp-72" style="edgeStyle=orthogonalEdgeStyle;rounded=0;orthogonalLoop=1;jettySize=auto;html=1;exitX=0.5;exitY=1;exitDx=0;exitDy=0;entryX=0.488;entryY=-0.117;entryDx=0;entryDy=0;entryPerimeter=0;" edge="1" parent="1" source="OdXs5k8Kck4mFlZXdsgp-42" target="OdXs5k8Kck4mFlZXdsgp-22">
          <mxGeometry relative="1" as="geometry" />
        </mxCell>
        <mxCell id="OdXs5k8Kck4mFlZXdsgp-42" value="Výměna klíče pomocí postkvantové kryptografie" style="rounded=1;whiteSpace=wrap;html=1;strokeWidth=1;" vertex="1" parent="1">
          <mxGeometry x="741.5" y="630" width="120" height="60" as="geometry" />
        </mxCell>
        <mxCell id="OdXs5k8Kck4mFlZXdsgp-47" value="" style="endArrow=classic;html=1;rounded=0;" edge="1" parent="1">
          <mxGeometry width="50" height="50" relative="1" as="geometry">
            <mxPoint x="860" y="520" as="sourcePoint" />
            <mxPoint x="970" y="520" as="targetPoint" />
            <Array as="points" />
          </mxGeometry>
        </mxCell>
        <mxCell id="OdXs5k8Kck4mFlZXdsgp-49" value="V tuto chvíli probíha připojení klientů na server a spustí se GUI" style="text;html=1;align=center;verticalAlign=middle;resizable=0;points=[];autosize=1;strokeColor=none;fillColor=none;" vertex="1" parent="1">
          <mxGeometry x="976" y="505" width="360" height="30" as="geometry" />
        </mxCell>
        <mxCell id="OdXs5k8Kck4mFlZXdsgp-50" value="" style="endArrow=classic;html=1;rounded=0;" edge="1" parent="1">
          <mxGeometry width="50" height="50" relative="1" as="geometry">
            <mxPoint x="880" y="569.5" as="sourcePoint" />
            <mxPoint x="970" y="569.5" as="targetPoint" />
          </mxGeometry>
        </mxCell>
        <mxCell id="OdXs5k8Kck4mFlZXdsgp-52" value="" style="endArrow=classic;html=1;rounded=0;" edge="1" parent="1">
          <mxGeometry width="50" height="50" relative="1" as="geometry">
            <mxPoint x="880" y="474.5" as="sourcePoint" />
            <mxPoint x="970" y="474.5" as="targetPoint" />
          </mxGeometry>
        </mxCell>
        <mxCell id="OdXs5k8Kck4mFlZXdsgp-53" value="Klienti: Client.py a Storage.py" style="text;html=1;strokeColor=none;fillColor=none;align=center;verticalAlign=middle;whiteSpace=wrap;rounded=0;" vertex="1" parent="1">
          <mxGeometry x="956" y="460" width="220" height="30" as="geometry" />
        </mxCell>
        <mxCell id="OdXs5k8Kck4mFlZXdsgp-54" value="" style="endArrow=classic;html=1;rounded=0;" edge="1" parent="1">
          <mxGeometry width="50" height="50" relative="1" as="geometry">
            <mxPoint x="880" y="379.5" as="sourcePoint" />
            <mxPoint x="970" y="379.5" as="targetPoint" />
          </mxGeometry>
        </mxCell>
        <mxCell id="OdXs5k8Kck4mFlZXdsgp-55" value="Server.py" style="text;html=1;strokeColor=none;fillColor=none;align=center;verticalAlign=middle;whiteSpace=wrap;rounded=0;" vertex="1" parent="1">
          <mxGeometry x="976" y="365" width="60" height="30" as="geometry" />
        </mxCell>
        <mxCell id="OdXs5k8Kck4mFlZXdsgp-57" value="Zadání IP adresy klienta Storage-Serveru" style="text;html=1;strokeColor=none;fillColor=none;align=center;verticalAlign=middle;whiteSpace=wrap;rounded=0;" vertex="1" parent="1">
          <mxGeometry x="976" y="555" width="240" height="30" as="geometry" />
        </mxCell>
        <mxCell id="OdXs5k8Kck4mFlZXdsgp-60" value="" style="endArrow=classic;html=1;rounded=0;" edge="1" parent="1">
          <mxGeometry width="50" height="50" relative="1" as="geometry">
            <mxPoint x="880" y="669.5" as="sourcePoint" />
            <mxPoint x="970" y="669.5" as="targetPoint" />
          </mxGeometry>
        </mxCell>
        <mxCell id="OdXs5k8Kck4mFlZXdsgp-61" value="Využití AES(256)" style="text;html=1;strokeColor=none;fillColor=none;align=center;verticalAlign=middle;whiteSpace=wrap;rounded=0;" vertex="1" parent="1">
          <mxGeometry x="976" y="865" width="104" height="30" as="geometry" />
        </mxCell>
        <mxCell id="OdXs5k8Kck4mFlZXdsgp-67" value="Uloženo do proměnné" style="text;html=1;strokeColor=none;fillColor=none;align=center;verticalAlign=middle;whiteSpace=wrap;rounded=0;" vertex="1" parent="1">
          <mxGeometry x="960" y="745" width="170" height="30" as="geometry" />
        </mxCell>
        <mxCell id="OdXs5k8Kck4mFlZXdsgp-68" value="" style="endArrow=classic;html=1;rounded=0;" edge="1" parent="1">
          <mxGeometry width="50" height="50" relative="1" as="geometry">
            <mxPoint x="880" y="759.5" as="sourcePoint" />
            <mxPoint x="970" y="759.5" as="targetPoint" />
          </mxGeometry>
        </mxCell>
        <mxCell id="OdXs5k8Kck4mFlZXdsgp-73" style="edgeStyle=orthogonalEdgeStyle;rounded=0;orthogonalLoop=1;jettySize=auto;html=1;exitX=0.5;exitY=1;exitDx=0;exitDy=0;entryX=0.5;entryY=0;entryDx=0;entryDy=0;" edge="1" parent="1" source="OdXs5k8Kck4mFlZXdsgp-22" target="OdXs5k8Kck4mFlZXdsgp-13">
          <mxGeometry relative="1" as="geometry" />
        </mxCell>
        <mxCell id="OdXs5k8Kck4mFlZXdsgp-22" value="Uchování symetrického klíče pro šifrování/dešifrování" style="whiteSpace=wrap;html=1;rounded=1;strokeWidth=1;" vertex="1" parent="1">
          <mxGeometry x="741.5" y="730" width="120" height="60" as="geometry" />
        </mxCell>
        <mxCell id="OdXs5k8Kck4mFlZXdsgp-76" value="" style="endArrow=classic;html=1;rounded=0;" edge="1" parent="1">
          <mxGeometry width="50" height="50" relative="1" as="geometry">
            <mxPoint x="880" y="879.5" as="sourcePoint" />
            <mxPoint x="970" y="879.5" as="targetPoint" />
          </mxGeometry>
        </mxCell>
        <mxCell id="OdXs5k8Kck4mFlZXdsgp-77" value="Využití algoritmu NewHope" style="text;html=1;strokeColor=none;fillColor=none;align=center;verticalAlign=middle;whiteSpace=wrap;rounded=0;" vertex="1" parent="1">
          <mxGeometry x="976" y="660" width="170" height="30" as="geometry" />
        </mxCell>
        <mxCell id="OdXs5k8Kck4mFlZXdsgp-78" value="" style="edgeStyle=orthogonalEdgeStyle;rounded=0;orthogonalLoop=1;jettySize=auto;html=1;strokeWidth=1;" edge="1" parent="1" source="OdXs5k8Kck4mFlZXdsgp-33" target="OdXs5k8Kck4mFlZXdsgp-29">
          <mxGeometry relative="1" as="geometry">
            <mxPoint x="540" y="1285" as="sourcePoint" />
            <mxPoint x="540" y="1330" as="targetPoint" />
          </mxGeometry>
        </mxCell>
        <mxCell id="OdXs5k8Kck4mFlZXdsgp-29" value="Srovnání logu" style="whiteSpace=wrap;html=1;rounded=0;strokeWidth=1;" vertex="1" parent="1">
          <mxGeometry x="480" y="1330" width="120" height="60" as="geometry" />
        </mxCell>
        <mxCell id="OdXs5k8Kck4mFlZXdsgp-84" value="V tuto chvíli se zobrazí přihlašovací okénko, kde je možné zadat uživatele User1, nebo Admin&lt;br&gt;.&lt;br&gt;&lt;br&gt;&lt;br&gt;Po přihlášení se zobrazí uložiště, kde je možné provádět akce viz níže" style="text;html=1;strokeColor=none;fillColor=none;align=center;verticalAlign=middle;whiteSpace=wrap;rounded=0;" vertex="1" parent="1">
          <mxGeometry x="976" y="980" width="272" height="30" as="geometry" />
        </mxCell>
        <mxCell id="OdXs5k8Kck4mFlZXdsgp-86" value="" style="endArrow=classic;html=1;rounded=0;" edge="1" parent="1">
          <mxGeometry width="50" height="50" relative="1" as="geometry">
            <mxPoint x="860" y="950" as="sourcePoint" />
            <mxPoint x="960" y="950" as="targetPoint" />
            <Array as="points" />
          </mxGeometry>
        </mxCell>
        <mxCell id="OdXs5k8Kck4mFlZXdsgp-102" style="edgeStyle=orthogonalEdgeStyle;rounded=0;orthogonalLoop=1;jettySize=auto;html=1;exitX=0.5;exitY=1;exitDx=0;exitDy=0;entryX=0.5;entryY=0;entryDx=0;entryDy=0;" edge="1" parent="1" source="OdXs5k8Kck4mFlZXdsgp-87" target="OdXs5k8Kck4mFlZXdsgp-100">
          <mxGeometry relative="1" as="geometry" />
        </mxCell>
        <mxCell id="OdXs5k8Kck4mFlZXdsgp-87" value="Informace o provedených akcích uloženy do logu" style="whiteSpace=wrap;html=1;strokeWidth=1;" vertex="1" parent="1">
          <mxGeometry x="745.75" y="1345" width="440" height="55" as="geometry" />
        </mxCell>
        <mxCell id="OdXs5k8Kck4mFlZXdsgp-97" value="Info" style="whiteSpace=wrap;html=1;strokeWidth=1;" vertex="1" parent="1">
          <mxGeometry x="1200" y="1220" width="123" height="60" as="geometry" />
        </mxCell>
        <mxCell id="OdXs5k8Kck4mFlZXdsgp-100" value="Hashování logů" style="whiteSpace=wrap;html=1;strokeWidth=1;" vertex="1" parent="1">
          <mxGeometry x="900" y="1430" width="130.75" height="60" as="geometry" />
        </mxCell>
        <mxCell id="OdXs5k8Kck4mFlZXdsgp-104" value="" style="endArrow=classic;html=1;rounded=0;" edge="1" parent="1">
          <mxGeometry width="50" height="50" relative="1" as="geometry">
            <mxPoint x="870" y="1020" as="sourcePoint" />
            <mxPoint x="960" y="1020" as="targetPoint" />
          </mxGeometry>
        </mxCell>
        <mxCell id="OdXs5k8Kck4mFlZXdsgp-105" value="" style="endArrow=classic;html=1;rounded=0;" edge="1" parent="1">
          <mxGeometry width="50" height="50" relative="1" as="geometry">
            <mxPoint x="1080" y="1459.58" as="sourcePoint" />
            <mxPoint x="1170" y="1459.58" as="targetPoint" />
          </mxGeometry>
        </mxCell>
        <mxCell id="OdXs5k8Kck4mFlZXdsgp-106" value="Hashování pomocí algoritmu SHA256" style="text;html=1;strokeColor=none;fillColor=none;align=center;verticalAlign=middle;whiteSpace=wrap;rounded=0;" vertex="1" parent="1">
          <mxGeometry x="1176" y="1445" width="210" height="30" as="geometry" />
        </mxCell>
        <mxCell id="OdXs5k8Kck4mFlZXdsgp-107" value="V případě přihlášení User1 budete moci provádět všechny možné funkce uvedeny níže.&lt;br style=&quot;border-color: var(--border-color);&quot;&gt;V případě Admin účtu budete moct kromě běžných&amp;nbsp;funkcí, ověřit shodnost hashe logů aktuálně vytvořeného s hashem logů, který byl vytvořen při poslední operaci provedené v uložišti" style="text;html=1;strokeColor=none;fillColor=none;align=center;verticalAlign=middle;whiteSpace=wrap;rounded=0;" vertex="1" parent="1">
          <mxGeometry x="140" y="1185" width="270" height="30" as="geometry" />
        </mxCell>
      </root>
    </mxGraphModel>
  </diagram>
</mxfile>
